<svg xmlns="http://www.w3.org/2000/svg" viewBox="0 0 291.4 127.3"><path d="M52.6 34.8L38 54.4A133.8 133.8 0 0 0 25 76h27.6zm25.7-32V76h13v21.5h-13v27.3H52.6V97.5H0V78.3Q3.9 70.6 9.7 61q5.8-9.9 12.8-20 7.2-10.5 15.2-20.3A220.2 220.2 0 0 1 53.5 2.8zm112.2 60.7q0 30.8-11.8 47.4-11.6 16.3-32.2 16.3T114 111q-11.6-16.6-11.6-47.4a110.4 110.4 0 0 1 3-27 61 61 0 0 1 9-20 39.7 39.7 0 0 1 13.9-12.3 38.5 38.5 0 0 1 18-4.2q20.7 0 32.3 16.5 11.8 16.4 11.8 47zm-26.8 0A140.2 140.2 0 0 0 163 47a59.6 59.6 0 0 0-2.9-13 20 20 0 0 0-5.2-8.4 13 13 0 0 0-16.6 0A22.7 22.7 0 0 0 133 34a59.6 59.6 0 0 0-2.8 13 140.2 140.2 0 0 0-.9 16.5 144.7 144.7 0 0 0 1 16.8 59.6 59.6 0 0 0 2.7 13 22.7 22.7 0 0 0 5.3 8.4 13 13 0 0 0 16.6 0 20 20 0 0 0 5.2-8.5 59.6 59.6 0 0 0 2.8-13 144.7 144.7 0 0 0 1-16.7zm89-28.7l-14.6 19.6a135.2 135.2 0 0 0-13 21.6h27.7zm25.7-32V76h13v21.5h-13v27.3h-25.7V97.5H200V78.3q3.8-7.7 9.6-17.4 5.9-9.9 12.9-20 7.2-10.4 15.1-20.3a220.2 220.2 0 0 1 15.9-17.8z" fill="#fff"/></svg>