<svg xmlns="http://www.w3.org/2000/svg" viewBox="0 0 384 350"><path style="isolation:isolate" fill="#fff" opacity=".3" d="M136.7 103.7L118 71.3H80.5l-18.7 32.4 18.8 32.5H118l18.7-32.5z"/><path fill="#fff" d="M56.2 171.8l18.7-32.4-18.7-32.5H18.7L0 139.4l18.7 32.4h37.5z"/><path style="isolation:isolate" fill="#fff" opacity=".3" d="M80.5 213.8l-18.7 32.5 18.8 32.4H118l18.7-32.4-18.7-32.5H80.5z"/><path fill="#fff" d="M56.2 243.1l18.7-32.5-18.7-32.4H18.7L0 210.6l18.7 32.5h37.5z"/><path style="isolation:isolate" fill="#fff" opacity=".1" d="M327.8 213.8l-18.7 32.5 18.7 32.4h37.5l18.7-32.4-18.7-32.5h-37.5zM327.8 136.2h37.5l18.7-32.5-18.7-32.4h-37.5l-18.7 32.4 18.7 32.5z"/><path style="isolation:isolate" fill="#fff" opacity=".3" d="M303.4 243.1l18.8-32.5-18.8-32.4H266l-18.7 32.4 18.7 32.5h37.4zM241.6 136.2l18.8-32.5-18.8-32.4h-37.4l-18.8 32.4 18.8 32.5h37.4zM303.4 106.9H266l-18.7 32.5 18.7 32.4h37.4l18.8-32.4-18.8-32.5zM204.2 278.7h37.4l18.8-32.4-18.8-32.5h-37.4l-18.8 32.5 18.8 32.4z"/><path style="isolation:isolate" fill="#fff" opacity=".1" d="M266 249.4L247.3 282l18.7 32.5h37.4l18.8-32.5-18.8-32.5H266zM204.2 285l-18.8 32.5 18.8 32.5h37.4l18.8-32.5-18.8-32.5h-37.4zM80.5 285l-18.7 32.5L80.6 350H118l18.7-32.5L118 285H80.5zM241.6 65l18.8-32.5L241.6 0h-37.4l-18.8 32.5L204.2 65h37.4zM118 65l18.7-32.5L118 0H80.5L61.8 32.5 80.6 65H118zM266 100.6h37.4L322.3 68l-18.8-32.5H266l-18.7 32.5 18.7 32.5zM56.2 249.4H18.7L0 282l18.7 32.5h37.5l18.7-32.5-18.7-32.5zM56.2 100.6L74.9 68 56.2 35.6H18.7L0 68.1l18.7 32.5h37.5z"/><path fill="#fff" d="M80.5 207.5H118l18.7-32.5-18.7-32.5H80.5L61.8 175l18.8 32.5zM260.4 175l-18.8-32.5h-37.4L185.4 175l18.8 32.5h37.4l18.8-32.5zM179.8 178.2h-37.4l-18.8 32.4 18.8 32.5h37.4l18.8-32.5-18.8-32.4zM142.4 171.8h37.4l18.8-32.4-18.8-32.5h-37.4l-18.8 32.5 18.8 32.4z"/></svg>