<svg xmlns="http://www.w3.org/2000/svg" viewBox="0 0 410 373.28"><path d="M344 110.64l-20 34.64h-40l-20-34.64L284 76h40zM410 148.64l-20 34.64h-40l-20-34.64L350 114h40zM344 262.64l-20 34.64h-40l-20-34.64L284 228h40zM410 224.64l-20 34.64h-40l-20-34.64L350 190h40z" style="isolation:isolate" fill="#fff" opacity=".25"/><path d="M80 262.64l-20 34.64H20L0 262.64 20 228h40zM80 110.64l-20 34.64H20L0 110.64 20 76h40z" style="isolation:isolate" fill="#fff" opacity=".05"/><path d="M146 224.64l-20 34.64H86l-20-34.64L86 190h40zM212 110.64l-20 34.64h-40l-20-34.64L152 76h40zM146 148.64l-20 34.64H86l-20-34.64L86 114h40zM212 262.64l-20 34.64h-40l-20-34.64L152 228h40z" style="isolation:isolate" fill="#fff" opacity=".25"/><path d="M146 300.64l-20 34.64H86l-20-34.64L86 266h40zM212 338.64l-20 34.64h-40l-20-34.64L152 304h40zM344 338.64l-20 34.64h-40l-20-34.64L284 304h40zM212 34.64l-20 34.64h-40l-20-34.64L152 0h40zM344 34.64l-20 34.64h-40l-20-34.64L284 0h40zM146 72.64l-20 34.64H86L66 72.64 86 38h40zM410 300.64l-20 34.64h-40l-20-34.64L350 266h40zM410 72.64l-20 34.64h-40l-20-34.64L350 38h40z" style="isolation:isolate" fill="#fff" opacity=".05"/><path d="M344 186.64l-20 34.64h-40l-20-34.64L284 152h40z" fill="#fff"/><path d="M309.11 193.74s1.37-17.86-9.46-31.1c0 0 4.12 20.71 1.38 31.57 0 0-6.79-11.88-23-15.14a36.51 36.51 0 0 1 18.53 29.47 2.42 2.42 0 0 0 2.59 2.1h11.36a2.41 2.41 0 0 0 2.52-2c1.14-7.06 5.71-31.16 17-41.28.05-.03-17.49 8.86-20.92 26.38z" fill="#27b45d"/><path d="M212 186.64l-20 34.64h-40l-20-34.64L152 152h40z" fill="#fff"/><path d="M167.93 180.84a3.55 3.55 0 0 1-4.21-3 3.86 3.86 0 0 1 2.72-4.58 3.56 3.56 0 0 1 4.22 3 3.87 3.87 0 0 1-2.73 4.58zm2.78 8.17a2.13 2.13 0 0 1-1.44-2.54 1.94 1.94 0 0 1 2.34-1.56l3.88 1a2.12 2.12 0 0 1 1.44 2.53 2 2 0 0 1-1.48 1.58 1.75 1.75 0 0 1-.85 0zm9.62 9l-3.86 1.11h-.09a2 2 0 0 1-2.28-1.52 2.14 2.14 0 0 1 1.38-2.58l3.85-1.11a1.9 1.9 0 0 1 2.37 1.49 2.12 2.12 0 0 1-1.37 2.6zm10.15-2.66l-3.66-.89a9.25 9.25 0 0 0-1-3.16l2.47-1.7a2.23 2.23 0 0 0 .6-2.91 1.86 1.86 0 0 0-2.68-.65l-2.45 1.7L181 183l2.37-1.64a2.21 2.21 0 0 0 .6-2.91 1.85 1.85 0 0 0-2.67-.65l-2.37 1.64-2.77-4.74 2.44-1.7a2.22 2.22 0 0 0 .6-2.91 1.85 1.85 0 0 0-2.67-.65l-2.47 1.7a8.27 8.27 0 0 0-2.74-2.72l.66-3.2a2.12 2.12 0 0 0-1.47-2.52 1.94 1.94 0 0 0-2.31 1.6l-.63 3a7.47 7.47 0 0 0-3.94 1l-1.54-2.64a1.86 1.86 0 0 0-2.68-.65 2.22 2.22 0 0 0-.59 2.91l1.54 2.64a8.75 8.75 0 0 0-2.76 4l-3.24-.79a1.94 1.94 0 0 0-2.31 1.6 2.1 2.1 0 0 0 1.47 2.51l3.66.89a9.06 9.06 0 0 0 1 3.23l-2.32 1.6a2.22 2.22 0 0 0-.6 2.9 1.9 1.9 0 0 0 2 .94 1.8 1.8 0 0 0 .63-.29l2.3-1.59 2.77 4.74-2.3 1.7a2.22 2.22 0 0 0-.59 2.91 1.87 1.87 0 0 0 2 .93 2.07 2.07 0 0 0 .63-.28l2.39-1.65 2.76 4.74-2.3 1.59a2.23 2.23 0 0 0-.6 2.91 1.88 1.88 0 0 0 2 .93 2 2 0 0 0 .64-.28l2.32-1.6a8.19 8.19 0 0 0 2.69 2.65l-.66 3.21a2.11 2.11 0 0 0 1.47 2.51 1.75 1.75 0 0 0 .82 0 2 2 0 0 0 1.57-1.57l.63-3a7.55 7.55 0 0 0 3.94-1.05l1.67 2.85a1.87 1.87 0 0 0 2 .93 1.77 1.77 0 0 0 .63-.28 2.21 2.21 0 0 0 .6-2.9l-1.67-2.86a8.67 8.67 0 0 0 2.76-4l3.24.78a1.79 1.79 0 0 0 .83 0 2 2 0 0 0 1.48-1.6 2.11 2.11 0 0 0-1.43-2.54z" fill="#27b45d"/><path d="M278 224.64l-20 34.64h-40l-20-34.64L218 190h40z" fill="#fff"/><path d="M223.09 226.56l-8.58 7.49a1.33 1.33 0 0 0 0 2.09 1.82 1.82 0 0 0 2.4 0l8.06-7h2.74v5l-6.17 4.34a1.31 1.31 0 0 0-.34 2l5.14 7.49a2 2 0 0 0 2.4.45 1.38 1.38 0 0 0 .52-2.1l-4.26-6.58 3.26-2.25c1 3.3 4.28 5.84 8.23 6.44v-22.32a1.73 1.73 0 0 1 3.43 0v22.47a10.23 10.23 0 0 0 8.22-6.44l3.26 2.25-4.28 6.44a1.48 1.48 0 0 0 .51 2.1A2 2 0 0 0 250 248l5.14-7.49a1.3 1.3 0 0 0-.34-2l-6.51-4.49v-5H251l8.06 7a1.82 1.82 0 0 0 2.4 0 1.33 1.33 0 0 0 0-2.09l-8.58-7.49a1.65 1.65 0 0 0-1.2-.45h-3.42a7.21 7.21 0 0 0-.35-3h2.92a3 3 0 0 0 2.74-1.65l4.8-11.23a1.51 1.51 0 0 0-1-1.95 1.87 1.87 0 0 0-2.23.9l-4.63 10.93h-3.6a12.26 12.26 0 0 0-1.2-6.29l3.6-3.14a1.11 1.11 0 0 0 .69-1.05v-4.49a1.29 1.29 0 0 0-.51-1l-3.43-3a1.82 1.82 0 0 0-2.4 0 1.32 1.32 0 0 0 0 2.1l2.91 2.54V209l-2.4 2.1a8.24 8.24 0 0 0-6.17-3 7.89 7.89 0 0 0-6 3l-2.4-2.1v-3.3l2.91-2.54a1.32 1.32 0 0 0 0-2.1 1.82 1.82 0 0 0-2.4 0l-3.42 3a1.27 1.27 0 0 0-.52 1v4.49a1.27 1.27 0 0 0 .52 1.05l3.6 3.14a12.26 12.26 0 0 0-1.2 6.29h-3.43l-4.8-10.93a1.72 1.72 0 0 0-2.23-.9 1.46 1.46 0 0 0-1 1.95l5 11.23a3 3 0 0 0 2.74 1.65h2.75a7.21 7.21 0 0 0-.35 3h-3.42a1.41 1.41 0 0 0-1.26.53z" fill="#27b45d"/><path d="M278 148.64l-20 34.64h-40l-20-34.64L218 114h40z" fill="#fff"/><path d="M231.9 165.64l2.53-2.54h6.65a5.33 5.33 0 0 1-4.49-4.93 4.64 4.64 0 0 1 1.32-3.19l.07-.14h-8.56l1.23 1.47h-3.36l.05-4.91h4.82c-2.26-4.22-6.59-5.87-12.51-5.57l-5.65-4.17v-.49l5.21-3 .53-1.23 5.77-2v-1a2.18 2.18 0 0 1 2.13-2.23 2.13 2.13 0 0 1 1.85 1.13 2.11 2.11 0 0 1 1.85-1.13 2.18 2.18 0 0 1 2.12 2.23V135l6.6 4h5.48c8.36 0 11 2.43 11 9.71v14.57c2.75 0 2.75-2.43 2.75-6.07v-15.85c0-4.86 0-7.19-5.44-7.19-2.79 0-2.79 0-2.79-1.31s0-1.22 2.79-1.22c8.18 0 8.18 2.43 8.18 9.72v15.78c0 6.07-.34 8.53-5.44 8.5z" fill="#27b45d"/></svg>