<?xml version="1.0" standalone="no"?>
<!DOCTYPE svg PUBLIC "-//W3C//DTD SVG 20010904//EN"
 "http://www.w3.org/TR/2001/REC-SVG-20010904/DTD/svg10.dtd">
<svg version="1.0" xmlns="http://www.w3.org/2000/svg"
 width="250.000000pt" height="250.000000pt" viewBox="0 0 250.000000 250.000000"
 preserveAspectRatio="xMidYMid meet">
<metadata>
Created by potrace 1.11, written by Peter Selinger 2001-2013
</metadata>
<g transform="translate(0.000000,250.000000) scale(0.100000,-0.100000)"
fill="#000000" stroke="none">
<path d="M884 2489 c-33 -9 -236 -180 -245 -207 -4 -14 -5 -236 0 -279 0 -6
48 -53 106 -103 l104 -91 -18 -43 c-25 -56 -41 -136 -44 -213 -1 -35 -4 -64
-7 -64 -3 -1 -40 -2 -83 -3 -68 -1 -79 1 -90 19 -7 11 -48 101 -91 200 -43 99
-90 205 -103 235 -14 30 -34 74 -44 98 -19 43 -63 73 -98 67 -9 -2 -21 -4 -27
-4 -22 -2 -54 -43 -54 -71 0 -33 259 -621 287 -652 33 -37 68 -47 162 -50 l91
-2 -6 -45 c-3 -25 -6 -59 -7 -76 l-2 -30 -95 -1 c-120 -2 -113 -1 -137 -22
-11 -9 -47 -39 -78 -67 -32 -27 -63 -55 -69 -60 -6 -6 -82 -72 -169 -148 -86
-76 -158 -142 -158 -147 -1 -6 -2 -16 -3 -22 -6 -38 51 -88 92 -82 6 1 19 2
27 3 8 0 36 20 63 44 26 23 77 67 112 97 35 30 68 60 74 65 6 6 42 37 81 70
38 33 81 70 95 83 22 20 34 22 95 20 l70 -3 0 -125 0 -125 -172 -123 c-115
-81 -175 -130 -178 -145 -8 -29 5 -58 57 -132 24 -33 83 -118 132 -190 49 -72
96 -136 103 -144 8 -7 33 -16 56 -18 33 -4 48 0 70 17 48 38 39 64 -89 263
-63 98 -114 180 -112 181 50 37 159 108 161 105 1 -2 13 -26 27 -54 37 -73
142 -175 220 -213 61 -30 170 -64 179 -56 2 2 3 259 3 571 -1 365 3 580 9 601
21 64 106 79 149 25 20 -25 20 -40 20 -615 l0 -590 38 5 c130 16 292 136 360
264 15 29 31 53 35 53 7 0 126 -79 151 -101 5 -4 -42 -83 -104 -176 -61 -92
-114 -182 -117 -200 -11 -63 71 -105 135 -70 12 7 45 46 74 87 159 231 238
353 238 369 0 30 -20 47 -200 171 l-175 120 0 129 0 129 72 -1 c62 -2 76 -6
100 -28 15 -14 82 -72 148 -130 66 -57 122 -106 125 -109 3 -3 36 -31 73 -63
54 -45 75 -57 102 -57 48 0 88 37 87 80 -1 37 3 33 -213 220 -73 63 -137 120
-143 125 -6 6 -40 35 -75 65 l-63 55 -97 2 c-53 1 -101 2 -106 2 -6 1 -10 18
-11 39 0 20 -3 54 -7 75 l-8 37 91 0 c101 0 146 13 177 54 32 40 273 611 273
646 0 31 -29 69 -55 71 -52 5 -70 1 -92 -18 -11 -10 -57 -106 -102 -213 -45
-107 -87 -204 -92 -215 -5 -11 -22 -51 -38 -90 l-29 -70 -49 -5 c-26 -3 -68
-4 -93 -2 l-45 4 -1 66 c-1 69 -24 176 -48 224 -14 26 -13 29 39 75 58 53 119
105 150 126 17 13 19 28 20 153 1 77 -1 144 -3 151 -6 19 -207 192 -234 202
-54 20 -120 -21 -120 -75 0 -28 13 -43 126 -142 l50 -43 1 -85 1 -84 -61 -54
-60 -53 -45 39 c-169 151 -395 147 -560 -8 l-35 -33 -61 57 -62 57 3 82 c2 77
4 83 31 106 16 14 38 33 50 43 12 11 38 34 58 52 57 50 51 104 -13 136 -17 9
-36 10 -57 5z"/>
</g>
</svg>
