<svg xmlns="http://www.w3.org/2000/svg" viewBox="0 0 74.91 27.48"><path fill="#fff" d="M40.85 9.41a7.81 7.81 0 0 0-3.67-.64h-4.29v10.08h4.3a8 8 0 0 0 3.71-.61 2.43 2.43 0 0 0 1.1-2.31v-4.1a2.55 2.55 0 0 0-1.15-2.42zm-1.31 6.52a.94.94 0 0 1-.53 1 5.92 5.92 0 0 1-1.93.21h-1.77V10.5h1.85a4.36 4.36 0 0 1 1.78.28 1 1 0 0 1 .59 1zM51 17.52a3 3 0 0 0 .23-1.25v-2.22a3.3 3.3 0 0 0-.23-1.33 2.29 2.29 0 0 0-.59-.85 2.47 2.47 0 0 0-.91-.46 5.23 5.23 0 0 0-1-.2h-2.16a5.22 5.22 0 0 0-1 .2 2.49 2.49 0 0 0-.91.46 2.3 2.3 0 0 0-.59.85 3.3 3.3 0 0 0-.24 1.33v2.22a3 3 0 0 0 .23 1.25 2.2 2.2 0 0 0 .57.81 2.37 2.37 0 0 0 .89.44 5.53 5.53 0 0 0 1 .19h2.22a5.51 5.51 0 0 0 1-.19 2.38 2.38 0 0 0 .89-.44 2.23 2.23 0 0 0 .6-.81zm-2-1a1 1 0 0 1-.3.82 3.46 3.46 0 0 1-2.5 0 1 1 0 0 1-.3-.82v-2.83a1.06 1.06 0 0 1 .31-.86 3.14 3.14 0 0 1 2.48 0 1.06 1.06 0 0 1 .31.86zM59.6 11.88a2.48 2.48 0 0 0-.91-.46 5.2 5.2 0 0 0-1-.2h-2.16a5.21 5.21 0 0 0-1 .2 2.51 2.51 0 0 0-.91.46 2.31 2.31 0 0 0-.59.85 3.31 3.31 0 0 0-.24 1.33v2.22a3 3 0 0 0 .21 1.24 2.2 2.2 0 0 0 .58.81 2.34 2.34 0 0 0 .89.44 5.51 5.51 0 0 0 1 .19h2.22a5.52 5.52 0 0 0 1-.19 2.37 2.37 0 0 0 .89-.44 2.19 2.19 0 0 0 .57-.81 3 3 0 0 0 .24-1.25v-2.22a3.29 3.29 0 0 0-.24-1.33 2.29 2.29 0 0 0-.55-.84zm-1.44 4.66a1 1 0 0 1-.3.82 3.46 3.46 0 0 1-2.5 0 1 1 0 0 1-.3-.82v-2.85a1.06 1.06 0 0 1 .31-.86 3.14 3.14 0 0 1 2.48 0 1.06 1.06 0 0 1 .31.86zM65 11.64a1.33 1.33 0 0 0-.65 1v-1.31H62.2v7.51h2.27v-4.51a1.06 1.06 0 0 1 .47-1 2.76 2.76 0 0 1 1.4-.29h.78v-1.86h-.81a2.2 2.2 0 0 0-1.31.46zM72.07 14.11h-1a.94.94 0 0 1-.6-.15.44.44 0 0 1-.19-.34v-.4a.52.52 0 0 1 .25-.51 3.26 3.26 0 0 1 1.2-.13q.31 0 2.73.19v-1.45q-1.93-.14-2.67-.14a7.77 7.77 0 0 0-2.76.39A1.41 1.41 0 0 0 68 13v.92a1.6 1.6 0 0 0 .66 1.39 3.1 3.1 0 0 0 1.84.48h1a1.43 1.43 0 0 1 .87.18.68.68 0 0 1 .2.54V17a.51.51 0 0 1-.37.52 3.18 3.18 0 0 1-1 .13 23.83 23.83 0 0 1-3-.33v1.51a22.92 22.92 0 0 0 3 .23h1.11a6.45 6.45 0 0 0 1-.16 2.42 2.42 0 0 0 .83-.35 1.72 1.72 0 0 0 .53-.63 2.05 2.05 0 0 0 .21-1v-.95q-.05-1.86-2.81-1.86zM34.87 21.86q-1.74 0-1.74 1.19v2q0 1.13 1.74 1.13a3.72 3.72 0 0 0 .6 0A2.68 2.68 0 0 0 36 26a.94.94 0 0 0 .44-.35 1 1 0 0 0 .16-.58V23q.03-1.14-1.73-1.14zM36 25q0 .72-1.15.72T33.73 25v-2a.75.75 0 0 1 .1-.39.6.6 0 0 1 .27-.24 1.3 1.3 0 0 1 .36-.11 2.88 2.88 0 0 1 .43 0Q36 22.27 36 23zM40.38 25.32a.33.33 0 0 1-.19.33 1.7 1.7 0 0 1-.67.09 1.34 1.34 0 0 1-.36 0 .39.39 0 0 1-.21-.12.42.42 0 0 1-.08-.16.77.77 0 0 1 0-.19V23h-.58v2.27a.88.88 0 0 0 .23.67 1.23 1.23 0 0 0 .84.22q.93 0 1-.44v.38H41V23h-.58zM43.54 22H43v1h-.69v.38H43v1.82a1 1 0 0 0 .23.76 1.24 1.24 0 0 0 .81.2 3.83 3.83 0 0 0 .65 0v-.38h-.46a.83.83 0 0 1-.52-.11.58.58 0 0 1-.13-.44v-1.87h1.11V23h-1.15zM47.33 24.26H47c-.38 0-.57-.1-.57-.31v-.26a.31.31 0 0 1 .17-.3 1.44 1.44 0 0 1 .62-.09 6 6 0 0 1 1 .09V23h-.94c-.92 0-1.38.24-1.38.73V24a.67.67 0 0 0 .25.55 1.14 1.14 0 0 0 .74.2h.35a.85.85 0 0 1 .44.08.3.3 0 0 1 .13.28v.31a.29.29 0 0 1-.19.3 1.7 1.7 0 0 1-.58.07 8.29 8.29 0 0 1-1.04-.15v.44a7.81 7.81 0 0 0 1.06.08A2.13 2.13 0 0 0 48 26a.72.72 0 0 0 .35-.69V25q-.04-.74-1.02-.74zM52.33 23.18A.66.66 0 0 0 52 23a1.87 1.87 0 0 0-.38-.07h-1a1.85 1.85 0 0 0-.38.07.67.67 0 0 0-.31.18 1 1 0 0 0-.18.33 1.56 1.56 0 0 0-.07.52v1.07a1.52 1.52 0 0 0 .09.58.6.6 0 0 0 .31.32 1.47 1.47 0 0 0 .43.13 5.61 5.61 0 0 0 .6 0h.48a1.86 1.86 0 0 0 .38-.07.7.7 0 0 0 .31-.17.82.82 0 0 0 .18-.31 1.48 1.48 0 0 0 .07-.49V24a1.59 1.59 0 0 0-.07-.52.94.94 0 0 0-.13-.3zm-.33 2a1 1 0 0 1 0 .33.3.3 0 0 1-.17.18.79.79 0 0 1-.25.07h-.76a.8.8 0 0 1-.25-.07.3.3 0 0 1-.17-.18 1 1 0 0 1 0-.33v-1.25c0-.29.06-.46.17-.53a2.22 2.22 0 0 1 1.33 0q.17.1.17.53zM56.31 25.32a.33.33 0 0 1-.19.33 1.71 1.71 0 0 1-.66.09 1.35 1.35 0 0 1-.36 0 .38.38 0 0 1-.21-.12.43.43 0 0 1-.08-.16.77.77 0 0 1 0-.19V23h-.58v2.27a.88.88 0 0 0 .23.67 1.22 1.22 0 0 0 .84.22q.93 0 1-.44v.38h.58V23h-.58zM59.44 23.09a.48.48 0 0 0-.28.4V23h-.54v3.09h.58V23.9a.4.4 0 0 1 .19-.38 1.26 1.26 0 0 1 .58-.1h.32v-.49H60a1.07 1.07 0 0 0-.56.16zM62.18 25.63a.51.51 0 0 1-.16-.45v-1.27a.61.61 0 0 1 .14-.49 1.12 1.12 0 0 1 .62-.11 3.89 3.89 0 0 1 1 .13V23a4.1 4.1 0 0 0-.88-.1h-.72a.79.79 0 0 0-.3.1 1.07 1.07 0 0 0-.21.18.73.73 0 0 0-.15.3 1.84 1.84 0 0 0 0 .44v1.14a1.31 1.31 0 0 0 .08.48.83.83 0 0 0 .18.3.69.69 0 0 0 .31.16 1.77 1.77 0 0 0 .36.07h.44a4.84 4.84 0 0 0 1-.09v-.43a3.8 3.8 0 0 1-.94.12 1.31 1.31 0 0 1-.77-.04zM65.26 21.86h.57v.6h-.57zM65.26 22.99h.57v3.09h-.57zM69.16 22.92c-.62 0-1 .15-1 .44V23h-.57v3.1h.57v-2.26a.44.44 0 0 1 .17-.4 1.43 1.43 0 0 1 .68-.11 1.34 1.34 0 0 1 .36 0 .38.38 0 0 1 .2.12.47.47 0 0 1 .08.16.82.82 0 0 1 0 .19V26h.57v-2.19a.88.88 0 0 0-.23-.67 1.22 1.22 0 0 0-.83-.22zM74.08 23.29c-.1-.24-.41-.36-.95-.36a1.57 1.57 0 0 0-1 .24 1 1 0 0 0-.3.79v1.24a.89.89 0 0 0 .26.73 1.61 1.61 0 0 0 1 .21 2.17 2.17 0 0 0 .65-.09c.19-.06.29-.16.3-.31v.74a.53.53 0 0 1-.2.47 1.14 1.14 0 0 1-.64.14 9.9 9.9 0 0 1-1.12-.09v.41a6.65 6.65 0 0 0 1.07.07 2.13 2.13 0 0 0 1.1-.23 1 1 0 0 0 .37-.89V23h-.54zm0 2a.43.43 0 0 1-.19.41 1.4 1.4 0 0 1-.63.11 1.32 1.32 0 0 1-.63-.1.46.46 0 0 1-.16-.42v-1.4a.49.49 0 0 1 .15-.42 1.19 1.19 0 0 1 .63-.11 1.36 1.36 0 0 1 .68.11.47.47 0 0 1 .16.41zM15.12 2.4V25l12.38 2.4V0zm9.66 7.77h-2.93v8.61H20v-8.62h-2.9V8.61h7.68zM0 27.39L12.39 25V2.4L0 0zM5.64 8.61H7.5v10.17H5.64z"/></svg>