<svg xmlns="http://www.w3.org/2000/svg" viewBox="0 0 273 122.93"><title>hasp-center-logo</title><path d="M117.22,54.73a56.58,56.58,0,0,0-11.28-27.8c2.17-2.6,1.73-6.51-.44-9.12-2.6-2.61-6.08-2.61-9.12-.43A56.85,56.85,0,0,0,68.6,5.65C68.16,2.17,65.12,0,61.65,0A7.44,7.44,0,0,0,54.7,5.65,53.13,53.13,0,0,0,26.92,17.38c-2.61-2.18-6.51-1.74-9.12.43a7.19,7.19,0,0,0-.43,9.12A57.15,57.15,0,0,0,5.64,54.73,6.58,6.58,0,0,0,0,61.25c0,3.47,2.6,6.08,6.08,7A53.3,53.3,0,0,0,17.8,96c-2.17,2.6-1.74,6.51.44,9.12a6.69,6.69,0,0,0,9.11.43,52.67,52.67,0,0,0,27.79,11.3,7,7,0,0,0,13.89,0,56.48,56.48,0,0,0,27.79-11.3c2.6,2.18,6.51,1.74,9.12-.43a6.72,6.72,0,0,0,.43-9.12,57,57,0,0,0,11.72-27.8,7,7,0,0,0,6.08-7C122.87,57.77,120.7,55.17,117.22,54.73ZM109.41,63c.43,2.6,2.6,4.34,4.78,5.21a55.79,55.79,0,0,1-10.86,26.06,5.91,5.91,0,0,0-7,.43L78.15,76H73.81l20.4,20.41a7.87,7.87,0,0,0-.43,6.95,55.65,55.65,0,0,1-26,10.86,6.55,6.55,0,0,0-5.21-4.78V76h-3v33.44a6.55,6.55,0,0,0-5.21,4.78,55.65,55.65,0,0,1-26.05-10.86,5.91,5.91,0,0,0-.43-6.95L48.19,76H44.28L26.05,94.26a7.87,7.87,0,0,0-6.95-.43A55.81,55.81,0,0,1,8.25,67.76,6.51,6.51,0,0,0,13,62.55h8.69v-3H13c0-2.17-1.73-3.91-4.34-4.78A55.79,55.79,0,0,1,19.54,28.67a5.88,5.88,0,0,0,6.94-.44L45.15,46.91h4.34L28.65,26.06a6.64,6.64,0,0,0,0-6.95A55.9,55.9,0,0,1,54.7,8.25,6.52,6.52,0,0,0,59.91,13V46.91h3V13c2.61-.43,4.35-2.6,5.21-4.78A55.81,55.81,0,0,1,94.21,19.11a5.9,5.9,0,0,0,.44,7L73.81,46.91h3.91L96.38,28.23a7.84,7.84,0,0,0,7,.44,55.79,55.79,0,0,1,10.86,26.06,6.52,6.52,0,0,0-4.78,5.21h-8.68V63Z" style="fill:#fff"/><path d="M39.08,50.39V72.54H33.43V63.42H31.69v9.12H26.05V50.39h5.64v7.82h1.74V50.39Z" style="fill:#fff"/><path d="M51.23,50.39l3,21.72H48.63l-.44-3.91H46l-.43,3.91H39.94l3-21.72Zm-3,14.33c-.43-2.61-.43-5.65-.86-9.12A73.26,73.26,0,0,1,46,64.72Z" style="fill:#fff"/><path d="M68.16,59.94H62.52V53.86c0-.43-.43-.43-.87-.43s-.87,0-.87.43V68.2c0,.43.44.43.87.43s.87,0,.87-.43V63.42h5.64v.87c0,2.17,0,3.91-.43,4.78a5.77,5.77,0,0,1-2.17,2.6,6.45,6.45,0,0,1-3.91.87,8.63,8.63,0,0,1-3.91-.87,4.48,4.48,0,0,1-2.17-2.6c-.43-.87-.43-2.61-.43-4.78v-10A3.27,3.27,0,0,1,56,52.13a4.28,4.28,0,0,1,2.17-1.74A8.35,8.35,0,0,1,61.65,50a12.91,12.91,0,0,1,4.34.87,4.46,4.46,0,0,1,2.17,2.61c.44.87.44,2.6.44,4.34v2.17Z" style="fill:#fff"/><path d="M83.36,59.94H77.72V53.86c0-.43-.44-.43-.87-.43s-.87,0-.87.43V68.2c0,.43.43.43.87.43s.87,0,.87-.43V63.42h5.64v.87c0,2.17,0,3.91-.43,4.78a5.83,5.83,0,0,1-2.17,2.6,6.46,6.46,0,0,1-3.91.87,8.6,8.6,0,0,1-3.91-.87,4.41,4.41,0,0,1-2.17-2.6c-.43-.87-.43-2.61-.43-4.78v-10a3.32,3.32,0,0,1,.86-2.17,4.37,4.37,0,0,1,2.17-1.74A8.4,8.4,0,0,1,76.85,50a13,13,0,0,1,4.34.87c1.3.44,1.74,1.31,2.17,2.61a12.2,12.2,0,0,1,.43,4.34v2.17Z" style="fill:#fff"/><path d="M85.53,50.39h5.65a7.53,7.53,0,0,1,3.47.43c.87.44,1.3.44,1.74.87a2.26,2.26,0,0,1,.86,1.74,23.85,23.85,0,0,1,.44,3v1.74c0,1.3,0,2.6-.44,3s-.86,1.3-1.73,1.3a6.51,6.51,0,0,1-3,.43h-1.3v8.69H85.53Zm5.65,3.91v5.64h.43c.43,0,.87,0,.87-.43s.43-.87.43-1.74V56c0-.87,0-1.3-.43-1.3A1.61,1.61,0,0,0,91.18,54.3Z" style="fill:#fff"/><path d="M165.19,58.23h-5V43.31h-13V58.23h-4.52V24.4h4.52V39.82h13V24.4h5Z" style="fill:#fff"/><path d="M187.75,49.77h-11l-2.51,8.46h-5L179.73,24.4h4.51l10.53,33.83h-5Zm-10-4h8.53l-4.51-14.92Z" style="fill:#fff"/><path d="M218.84,47.79a12.62,12.62,0,0,1-2.5,8,10.27,10.27,0,0,1-7.53,3c-3.51,0-6-1-8-3.48a14.3,14.3,0,0,1-3-9.45v-9a14.28,14.28,0,0,1,3-9.45c2-2.49,4.51-3.49,8-3.49s6,1,7.53,2.49c2,2,2.5,4.48,3,8h-5c0-2.49-.5-4.48-1.5-5.47a6.38,6.38,0,0,0-4.52-2,5.26,5.26,0,0,0-4.51,2.49c-1,1.49-1.51,4-1.51,7V45.8a14.38,14.38,0,0,0,1.51,7,5.28,5.28,0,0,0,4.51,2.49,6.2,6.2,0,0,0,4.52-1.49c1-1,1.5-3,1.5-5.48h4.51Z" style="fill:#fff"/><path d="M244.41,47.79a12.62,12.62,0,0,1-2.5,8,10.24,10.24,0,0,1-7.52,3c-3.51,0-6-1-8-3.48a14.3,14.3,0,0,1-3-9.45v-9a14.28,14.28,0,0,1,3-9.45c2-2.49,4.52-3.49,8-3.49s6,1,7.52,2.49c2,2,2.5,4.48,3,8H240.4c0-2.49-.5-4.48-1.5-5.47a6.36,6.36,0,0,0-4.51-2,5.28,5.28,0,0,0-4.52,2.49c-1,1.49-1.5,4-1.5,7V45.8a14.38,14.38,0,0,0,1.5,7,5.3,5.3,0,0,0,4.52,2.49,6.18,6.18,0,0,0,4.51-1.49c1-1,1.5-3,1.5-5.48h4Z" style="fill:#fff"/><path d="M254.45,44.8V58.23h-5V24.4h11a10.23,10.23,0,0,1,7.52,3c2,2,2.51,4.48,2.51,7.47A12.13,12.13,0,0,1,268,42.31a10.24,10.24,0,0,1-7.52,3h-6Zm0-3.48H261a4.1,4.1,0,0,0,4-2,8.41,8.41,0,0,0,1.5-5,8.41,8.41,0,0,0-1.5-5,4.59,4.59,0,0,0-4-2h-6.51Z" style="fill:#fff"/><path d="M160.17,89.57c0,3-.5,5.48-2.51,7A9.57,9.57,0,0,1,151.15,99c-3,0-5.52-1-7-3s-2.51-4.48-2.51-8.46V79.13a14.1,14.1,0,0,1,2.51-8.46c1.5-2,4-3,7-3a8.7,8.7,0,0,1,6.51,2.49,9.77,9.77,0,0,1,2.51,7h-4c0-2-.5-4-1.5-5a5,5,0,0,0-4-1.49,4.59,4.59,0,0,0-4,2,10.56,10.56,0,0,0-1.5,6v8.46a10.6,10.6,0,0,0,1.5,6,4.59,4.59,0,0,0,4,2,5.72,5.72,0,0,0,4-1.5c1-1,1-2.48,1-5h4.51Z" style="fill:#fff"/><path d="M180.23,84.6h-11V95.05h12.54v3.49H164.69V68.68h17.05v3H169.2v10h11Z" style="fill:#fff"/><path d="M205.8,98.54h-4.51l-11-22.39h-.5V98.54h-4V68.68h4l11.53,21.89V68.68h4.51Z" style="fill:#fff"/><path d="M228.37,71.67h-8V98.54h-4V71.67h-7.52v-3h19.55Z" style="fill:#fff"/><path d="M246.92,84.6h-11V95.05h13v3.49H231.88V68.68h17.05v3h-13v10h11Z" style="fill:#fff"/><path d="M257,85.6V98.54h-4V68.68h9.53c3,0,5,.5,6.52,2a8.6,8.6,0,0,1,2.51,6.47,9.32,9.32,0,0,1-1,4,7.29,7.29,0,0,1-3,2.49,5.1,5.1,0,0,1,3,2.49,9.83,9.83,0,0,1,1,4.47v2.49a3.72,3.72,0,0,0,.5,2.49,2.58,2.58,0,0,0,1,2V98h-4.51a2.6,2.6,0,0,1-1-2V90.57a9.36,9.36,0,0,0-1-4,4.35,4.35,0,0,0-3-1.49H257Zm0-3h5c1.5,0,3-.49,3.51-1.49,1-1,1-2,1-4a9.36,9.36,0,0,0-1-4A4.59,4.59,0,0,0,262,71.67h-5Z" style="fill:#fff"/></svg>