<svg width="168" height="63" viewBox="0 0 168 63" fill="none" xmlns="http://www.w3.org/2000/svg">
<path d="M94.1927 27.1208V36.5078C94.1927 39.1207 93.4106 40.8868 91.8225 41.8062C90.2345 42.7255 87.4614 43.1852 83.5031 43.1852H73.8564V20.1047H83.4794C87.3192 20.1047 90.0686 20.5886 91.7277 21.5563C93.3632 22.5483 94.1927 24.387 94.1927 27.1208ZM88.7413 36.5078V26.9998C88.7413 25.887 88.291 25.1128 87.414 24.6773C86.537 24.2418 85.186 24.0483 83.4083 24.0483H79.2605V39.2417H83.2424C85.3282 39.2417 86.774 39.0723 87.5562 38.7578C88.3621 38.4433 88.7413 37.6933 88.7413 36.5078Z" fill="#030303"/>
<path d="M115.024 32.2034V37.284C115.024 38.3969 114.858 39.3646 114.502 40.1388C114.147 40.9372 113.72 41.542 113.222 41.9775C112.701 42.413 112.037 42.7517 111.207 42.9936C110.378 43.2356 109.619 43.3807 108.932 43.4291C108.245 43.4775 107.415 43.5259 106.443 43.5259C105.472 43.5259 104.642 43.5017 103.955 43.4291C103.267 43.3565 102.509 43.2114 101.679 42.9936C100.85 42.7517 100.186 42.413 99.6646 41.9775C99.1432 41.542 98.7166 40.913 98.3847 40.1388C98.0292 39.3404 97.8633 38.3969 97.8633 37.284V32.2034C97.8633 31.0179 98.0529 30.0018 98.4084 29.155C98.764 28.3083 99.2143 27.6792 99.7357 27.2196C100.257 26.7599 100.945 26.4212 101.774 26.1793C102.604 25.9373 103.362 25.768 104.026 25.7196C104.689 25.647 105.495 25.6228 106.443 25.6228C107.391 25.6228 108.197 25.647 108.861 25.7196C109.525 25.768 110.283 25.9373 111.113 26.1793C111.942 26.4212 112.63 26.7841 113.151 27.2196C113.673 27.6792 114.123 28.3083 114.478 29.155C114.858 30.0018 115.024 31.0179 115.024 32.2034ZM109.928 37.8888V31.3808C109.928 30.4615 109.691 29.8083 109.24 29.397C108.766 29.0099 107.842 28.8163 106.443 28.8163C105.045 28.8163 104.121 29.0099 103.647 29.397C103.173 29.7841 102.936 30.4373 102.936 31.3808V37.8888C102.936 38.784 103.173 39.413 103.623 39.7759C104.073 40.1388 104.998 40.3082 106.42 40.3082C107.842 40.3082 108.766 40.1388 109.217 39.7759C109.714 39.4372 109.928 38.8082 109.928 37.8888Z" fill="#030303"/>
<path d="M135.669 32.2034V37.284C135.669 38.3969 135.503 39.3646 135.147 40.1388C134.792 40.9372 134.365 41.542 133.867 41.9775C133.346 42.413 132.682 42.7517 131.876 42.9936C131.047 43.2356 130.288 43.3807 129.601 43.4291C128.913 43.4775 128.084 43.5259 127.112 43.5259C126.14 43.5259 125.311 43.5017 124.623 43.4291C123.936 43.3565 123.178 43.2114 122.348 42.9936C121.518 42.7517 120.855 42.413 120.357 41.9775C119.836 41.542 119.409 40.913 119.053 40.1388C118.698 39.3404 118.532 38.3969 118.532 37.284V32.2034C118.532 31.0179 118.722 30.0018 119.077 29.155C119.433 28.3083 119.883 27.6792 120.404 27.2196C120.926 26.7599 121.613 26.4212 122.443 26.1793C123.272 25.9373 124.031 25.768 124.694 25.7196C125.358 25.647 126.164 25.6228 127.112 25.6228C128.06 25.6228 128.866 25.647 129.53 25.7196C130.193 25.768 130.952 25.9373 131.781 26.1793C132.611 26.4212 133.298 26.7841 133.82 27.2196C134.341 27.6792 134.792 28.3083 135.147 29.155C135.479 30.0018 135.669 31.0179 135.669 32.2034ZM130.573 37.8888V31.3808C130.573 30.4615 130.336 29.8083 129.862 29.397C129.387 29.0099 128.463 28.8163 127.065 28.8163C125.666 28.8163 124.742 29.0099 124.268 29.397C123.794 29.7841 123.581 30.4373 123.581 31.3808V37.8888C123.581 38.784 123.818 39.413 124.268 39.7759C124.718 40.1388 125.666 40.3082 127.065 40.3082C128.487 40.3082 129.411 40.1388 129.862 39.7759C130.336 39.4372 130.573 38.8082 130.573 37.8888Z" fill="#030303"/>
<path d="M150.673 29.9292H148.942C147.544 29.9292 146.501 30.147 145.79 30.5824C145.079 31.0179 144.723 31.7679 144.723 32.8324V43.1872H139.627V25.9615H144.463V28.9857C144.486 28.1389 144.96 27.3647 145.908 26.6631C146.857 25.9615 147.828 25.6228 148.848 25.6228H150.673V29.9292Z" fill="#030303"/>
<path d="M168 36.4856V38.663C168 39.5098 167.858 40.2598 167.526 40.8646C167.218 41.4936 166.815 41.9533 166.341 42.3162C165.867 42.6549 165.251 42.9211 164.468 43.1146C163.71 43.3082 162.975 43.4291 162.264 43.4775C161.553 43.5259 160.723 43.5743 159.775 43.5743C157.95 43.5743 155.722 43.4049 153.115 43.042V39.5824C156.339 40.0904 158.59 40.3324 159.847 40.3324C160.842 40.3324 161.624 40.2356 162.169 40.042C162.714 39.8485 162.999 39.4372 162.999 38.8566V37.7921C162.999 37.2356 162.857 36.8485 162.549 36.5582C162.24 36.2921 161.6 36.1469 160.605 36.1469H158.401C156.647 36.1469 155.272 35.784 154.277 35.0582C153.281 34.3324 152.783 33.2679 152.783 31.8647V29.7599C152.783 28.1873 153.518 27.1228 154.988 26.518C156.457 25.9373 158.519 25.6228 161.174 25.6228C162.288 25.6228 164.279 25.7196 167.17 25.9373V29.2518C163.544 28.9615 161.506 28.8163 161.032 28.8163C159.609 28.8163 158.709 28.9131 158.353 29.1066C157.974 29.3002 157.808 29.6873 157.808 30.2679V31.1873C157.808 31.4776 157.95 31.7437 158.235 31.9615C158.519 32.2034 158.97 32.3244 159.586 32.3244H161.814C165.938 32.3486 168 33.7276 168 36.4856Z" fill="#030303"/>
<path d="M82.2223 52.8137V57.3136C82.2223 57.8459 82.1038 58.2814 81.8668 58.6443C81.6298 59.0072 81.2979 59.2733 80.8713 59.4427C80.4447 59.612 80.0417 59.733 79.6151 59.8056C79.2122 59.8781 78.7618 59.9023 78.2878 59.9023C75.6806 59.9023 74.377 59.0556 74.377 57.3136V52.8137C74.377 50.9992 75.6806 50.0798 78.2878 50.0798C80.9187 50.104 82.2223 51.0234 82.2223 52.8137ZM80.8713 57.3136V52.7895C80.8713 51.604 80.018 51.0234 78.2878 51.0234C77.9322 51.0234 77.6004 51.0476 77.316 51.096C77.0316 51.1443 76.7709 51.2169 76.5101 51.3379C76.2494 51.4589 76.0598 51.6282 75.8939 51.8701C75.7517 52.1121 75.6806 52.4024 75.6806 52.7653V57.2895C75.6806 58.3782 76.5338 58.9346 78.2878 58.9346C80.018 58.9588 80.8713 58.4265 80.8713 57.3136Z" fill="#ADADAD"/>
<path d="M91.965 59.7552H90.6614V58.8842C90.5192 59.5616 89.7607 59.9003 88.386 59.9003C87.4616 59.9003 86.8454 59.731 86.4898 59.3923C86.158 59.0536 85.9684 58.5455 85.9684 57.8681V52.6665H87.272V57.7955C87.272 57.9648 87.2957 58.11 87.3194 58.231C87.3431 58.3519 87.4142 58.4729 87.4853 58.5939C87.5801 58.7148 87.7223 58.8116 87.9356 58.86C88.149 58.9326 88.4097 58.9568 88.7415 58.9568C89.4526 58.9568 89.9503 58.8842 90.2347 58.7632C90.5192 58.6181 90.6614 58.3761 90.6614 58.0132V52.6665H91.965V59.7552Z" fill="#ADADAD"/>
<path d="M100.211 59.8044C99.7608 59.877 99.263 59.9254 98.7653 59.9254C97.8883 59.9254 97.2958 59.7802 96.9402 59.4657C96.6084 59.1512 96.4188 58.5706 96.4188 57.7238V53.5625H94.8782V52.6916H96.4188V50.49H97.7224V52.6916H100.211V53.5625H97.7461V57.7964C97.7461 58.3044 97.8409 58.6432 98.0305 58.8125C98.2202 58.9819 98.5994 59.0786 99.1919 59.0786C99.3341 59.0786 99.6897 59.0302 100.235 58.9577V59.8044H100.211Z" fill="#ADADAD"/>
<path d="M108.462 57.2891V57.8939C108.462 58.6681 108.202 59.1761 107.68 59.4665C107.159 59.7568 106.4 59.9019 105.429 59.9019C104.694 59.9019 103.888 59.8536 103.035 59.7326V58.7165C104.196 58.91 105.002 58.9826 105.452 58.9826C106.021 58.9826 106.471 58.9342 106.756 58.8132C107.04 58.6923 107.183 58.4745 107.183 58.1116V57.3858C107.183 57.0713 107.088 56.8778 106.874 56.7326C106.685 56.6116 106.353 56.5391 105.903 56.5391H105.097C104.362 56.5391 103.817 56.3939 103.438 56.0794C103.058 55.7649 102.869 55.3536 102.869 54.8213V54.1681C102.869 53.0552 103.912 52.4988 105.974 52.4988C106.211 52.4988 106.898 52.5472 108.083 52.6197V53.5633C107.254 53.4181 106.543 53.3455 105.926 53.3455C105.239 53.3455 104.765 53.4181 104.528 53.5633C104.291 53.7084 104.149 53.9262 104.149 54.2407V54.8455C104.149 55.3294 104.575 55.5713 105.429 55.5713H106.234C107.728 55.5955 108.462 56.152 108.462 57.2891Z" fill="#ADADAD"/>
<path d="M118.036 55.0642V57.532C118.036 57.9674 117.988 58.3545 117.87 58.6448C117.775 58.9594 117.633 59.1771 117.467 59.3465C117.301 59.5158 117.064 59.6368 116.779 59.7336C116.471 59.8303 116.187 59.8787 115.926 59.9029C115.642 59.9271 115.286 59.9271 114.836 59.9271C114.267 59.9271 113.817 59.9029 113.485 59.8787C113.153 59.8303 112.845 59.7335 112.513 59.5884C112.205 59.4432 111.968 59.2013 111.826 58.8626C111.683 58.5239 111.612 58.0884 111.612 57.532V55.0642C111.612 54.6046 111.66 54.1933 111.778 53.8788C111.897 53.5642 112.015 53.2981 112.181 53.1288C112.347 52.9594 112.584 52.8142 112.892 52.7175C113.2 52.6207 113.485 52.5723 113.745 52.5481C114.006 52.5239 114.362 52.5239 114.836 52.5239C115.286 52.5239 115.665 52.5239 115.926 52.5481C116.187 52.5723 116.471 52.6207 116.779 52.7175C117.087 52.8142 117.324 52.9352 117.467 53.1288C117.633 53.2981 117.751 53.5642 117.87 53.8788C117.988 54.1933 118.036 54.6046 118.036 55.0642ZM116.708 57.7255V54.8465C116.708 54.1933 116.566 53.782 116.329 53.6368C116.068 53.4917 115.571 53.3949 114.836 53.3949C114.101 53.3949 113.603 53.4675 113.343 53.6368C113.082 53.8062 112.963 54.1933 112.963 54.8465V57.7255C112.963 58.04 113.011 58.2819 113.058 58.4755C113.129 58.669 113.248 58.79 113.437 58.8868C113.627 58.9594 113.817 59.0319 114.006 59.0319C114.196 59.0561 114.48 59.0561 114.859 59.0561C115.239 59.0561 115.523 59.0561 115.713 59.0319C115.902 59.0077 116.092 58.9594 116.282 58.8868C116.471 58.79 116.59 58.669 116.661 58.4755C116.685 58.2819 116.708 58.04 116.708 57.7255Z" fill="#ADADAD"/>
<path d="M127.705 59.7552H126.425V58.8842C126.283 59.5616 125.525 59.9003 124.15 59.9003C123.226 59.9003 122.609 59.731 122.254 59.3923C121.898 59.0536 121.732 58.5455 121.732 57.8681V52.6665H123.036V57.7955C123.036 57.9648 123.036 58.11 123.083 58.231C123.107 58.3519 123.178 58.4729 123.273 58.5939C123.368 58.7148 123.51 58.8116 123.723 58.86C123.937 58.9326 124.197 58.9568 124.529 58.9568C125.24 58.9568 125.738 58.8842 126.022 58.7632C126.307 58.6181 126.449 58.3761 126.449 58.0132V52.6665H127.729V59.7552H127.705Z" fill="#ADADAD"/>
<path d="M135.36 53.6595H134.649C134.056 53.6595 133.63 53.7321 133.345 53.9015C133.061 54.0466 132.919 54.3611 132.919 54.7724V59.7804H131.615V52.6918H132.847V53.8531C132.847 53.5144 133.061 53.1999 133.464 52.9337C133.89 52.6676 134.293 52.5466 134.744 52.5466H135.384V53.6595H135.36Z" fill="#ADADAD"/>
<path d="M143.208 59.7094C142.568 59.8545 141.833 59.9271 140.98 59.9271C140.553 59.9271 140.221 59.9271 139.984 59.9029C139.747 59.8787 139.487 59.8303 139.179 59.7577C138.87 59.6852 138.657 59.5642 138.491 59.3948C138.325 59.2497 138.207 59.0077 138.088 58.7174C137.97 58.4271 137.922 58.04 137.922 57.6045V54.9917C137.922 54.6046 137.97 54.2658 138.041 53.9755C138.112 53.6852 138.23 53.4675 138.373 53.2981C138.515 53.1288 138.681 52.9836 138.847 52.8626C139.013 52.7659 139.226 52.6691 139.51 52.6449C139.795 52.5965 140.056 52.5723 140.245 52.5481C140.458 52.5239 140.743 52.5239 141.122 52.5239C141.786 52.5239 142.449 52.5965 143.113 52.7417V53.7094C142.378 53.5159 141.644 53.4191 140.98 53.4191C140.269 53.4191 139.795 53.5159 139.582 53.6852C139.368 53.8546 139.25 54.2417 139.25 54.7981V57.7013C139.25 58.2094 139.368 58.5723 139.629 58.7416C139.866 58.911 140.364 59.0077 141.122 59.0077C141.809 59.0077 142.497 58.911 143.232 58.7416V59.7094H143.208Z" fill="#ADADAD"/>
<path d="M147.782 51.4816H146.502V50.1025H147.782V51.4816ZM147.782 59.7557H146.502V52.667H147.782V59.7557Z" fill="#ADADAD"/>
<path d="M157.689 59.7568H156.409V54.6278C156.409 54.4584 156.385 54.3133 156.361 54.1923C156.338 54.0713 156.266 53.9504 156.172 53.8294C156.077 53.7084 155.935 53.6117 155.721 53.5391C155.508 53.4665 155.247 53.4423 154.915 53.4423C154.157 53.4423 153.659 53.5149 153.399 53.6843C153.138 53.8536 153.019 54.1681 153.019 54.6036V59.7326H151.739V52.6439H153.019V53.5149C153.162 52.8375 153.92 52.4988 155.295 52.4988C156.219 52.4988 156.859 52.6681 157.191 53.0068C157.546 53.3455 157.712 53.8536 157.712 54.531V59.7568H157.689Z" fill="#ADADAD"/>
<path d="M167.525 52.6695V60.4356C167.525 61.4517 167.241 62.1291 166.695 62.4678C166.15 62.8065 165.321 63.0001 164.207 63.0001C163.211 63.0001 162.429 62.9517 161.813 62.8307V61.8872C162.927 62.0324 163.756 62.1049 164.325 62.1049C164.989 62.1049 165.463 61.984 165.771 61.7904C166.079 61.5727 166.221 61.2098 166.221 60.7259V59.0324C166.198 59.3711 165.984 59.5888 165.558 59.734C165.131 59.8792 164.633 59.9517 164.088 59.9517C163.022 59.9517 162.287 59.7824 161.908 59.4679C161.528 59.1533 161.315 58.5969 161.315 57.7985V54.9195C161.315 54.0727 161.528 53.4921 161.979 53.105C162.429 52.7421 163.14 52.5728 164.159 52.5728C165.368 52.5728 166.079 52.8389 166.292 53.4195V52.7421H167.525V52.6695ZM166.221 57.8469V54.6292C166.221 54.1695 166.103 53.855 165.866 53.6856C165.629 53.5163 165.107 53.4195 164.349 53.4195C163.638 53.4195 163.164 53.4921 162.95 53.6615C162.737 53.8308 162.619 54.1453 162.619 54.605V57.8227C162.619 58.3066 162.737 58.6211 162.974 58.7904C163.211 58.9356 163.685 59.0082 164.396 59.0082C165.06 59.0082 165.51 58.9356 165.818 58.7663C166.079 58.6453 166.221 58.3308 166.221 57.8469Z" fill="#ADADAD"/>
<mask id="mask0" mask-type="alpha" maskUnits="userSpaceOnUse" x="0" y="0" width="62" height="63">
<path fill-rule="evenodd" clip-rule="evenodd" d="M0 62.7818L27.8024 57.2899V5.49189L0 0V62.7818ZM61.7453 0L33.9429 5.49189V57.2899L61.7453 62.7818V0Z" fill="white"/>
</mask>
<g mask="url(#mask0)">
<rect width="62.5881" height="62.9995" fill="#030303"/>
</g>
<path d="M16.8287 19.7427V43.0651H12.6571V19.7427H16.8287Z" fill="white"/>
<path d="M44.8922 23.2991H38.3741V19.7427H55.6292V23.2991H49.04V43.0409H44.8922V23.2991Z" fill="white"/>
</svg>
