<svg xmlns="http://www.w3.org/2000/svg" viewBox="0 0 294.72 68.78"><path d="M118.49 23.91v6.44h-3.71V12.08h7a8 8 0 0 1 3.56.75 5.59 5.59 0 0 1 2.41 2.16 6 6 0 0 1 .82 3.15 5.29 5.29 0 0 1-1.81 4.24 7.49 7.49 0 0 1-5 1.54zm0-3h3.32a3.2 3.2 0 0 0 2.24-.71 2.57 2.57 0 0 0 .78-2 3.06 3.06 0 0 0-.78-2.17 2.91 2.91 0 0 0-2.15-.85h-3.41zM142 22.43h-7.13v4.9h8.37v3h-12.11V12.08h12.05v3.05h-8.34v4.35H142zM154.72 25.56a1.93 1.93 0 0 0-.74-1.63 9.45 9.45 0 0 0-2.67-1.21 18.48 18.48 0 0 1-3.06-1.25c-2-1.12-3.07-2.63-3.07-4.53a4.49 4.49 0 0 1 .82-2.64 5.42 5.42 0 0 1 2.36-1.82 8.93 8.93 0 0 1 3.46-.65 7.87 7.87 0 0 1 3.44.72 5.33 5.33 0 0 1 2.34 2 5.27 5.27 0 0 1 .84 2.94h-3.71a2.47 2.47 0 0 0-.78-1.95 3.15 3.15 0 0 0-2.19-.7 3.37 3.37 0 0 0-2.11.59 1.83 1.83 0 0 0-.76 1.53 1.78 1.78 0 0 0 .88 1.49 10.24 10.24 0 0 0 2.61 1.13 11.27 11.27 0 0 1 4.62 2.41 4.78 4.78 0 0 1 1.45 3.56 4.44 4.44 0 0 1-1.77 3.73 7.64 7.64 0 0 1-4.76 1.34 9.12 9.12 0 0 1-3.78-.76 6.11 6.11 0 0 1-2.61-2.12 5.49 5.49 0 0 1-.89-3.12h3.72q0 3 3.56 3a3.49 3.49 0 0 0 2.08-.53 1.82 1.82 0 0 0 .72-1.53zM174.52 15.13H169v15.22h-3.71V15.13h-5.44v-3.05h14.67zM196.35 24.27a6.51 6.51 0 0 1-2.15 4.64 7.46 7.46 0 0 1-5.1 1.69 6.72 6.72 0 0 1-5.45-2.36 9.82 9.82 0 0 1-2-6.5v-1.11a11.12 11.12 0 0 1 .91-4.65 6.93 6.93 0 0 1 2.61-3.07 8.08 8.08 0 0 1 9 .61 7 7 0 0 1 2.2 4.76h-3.71a3.8 3.8 0 0 0-1-2.56 3.52 3.52 0 0 0-2.54-.8 3.15 3.15 0 0 0-2.78 1.35 7.62 7.62 0 0 0-.94 4.18v1.38a8.17 8.17 0 0 0 .88 4.33 3.09 3.09 0 0 0 2.79 1.37 3.6 3.6 0 0 0 2.56-.79 3.63 3.63 0 0 0 1-2.47zM213.58 21.63a11.24 11.24 0 0 1-.94 4.73 7.18 7.18 0 0 1-2.7 3.14 7.3 7.3 0 0 1-4 1.1 7.38 7.38 0 0 1-4-1.09 7.2 7.2 0 0 1-2.72-3.11 10.83 10.83 0 0 1-1-4.67v-.9a11.25 11.25 0 0 1 .95-4.75 7.3 7.3 0 0 1 2.71-3.15 7.43 7.43 0 0 1 4-1.1 7.34 7.34 0 0 1 4 1.1 7.11 7.11 0 0 1 2.71 3.15 10.91 10.91 0 0 1 1 4.74zm-3.76-.83a7.72 7.72 0 0 0-1-4.36 3.54 3.54 0 0 0-5.77 0 7.65 7.65 0 0 0-1 4.32v.89a7.91 7.91 0 0 0 .95 4.34 3.52 3.52 0 0 0 5.79.07 7.89 7.89 0 0 0 1-4.35zM230.92 30.35h-3.71l-7.23-12v12h-3.71V12.08H220l7.24 12.05v-12h3.7zM247.34 15.13h-5.52v15.22h-3.71V15.13h-5.44v-3.05h14.67zM256.13 23.66h-2.95v6.69h-3.71V12.08h6.69a7.48 7.48 0 0 1 4.92 1.44 5 5 0 0 1 1.73 4.08 5.75 5.75 0 0 1-.8 3.13 5.4 5.4 0 0 1-2.41 2l3.89 7.47v.17h-4zm-2.95-3.05h3a3 3 0 0 0 2.16-.71 2.6 2.6 0 0 0 .77-2 2.75 2.75 0 0 0-.73-2 3 3 0 0 0-2.21-.74h-3zM280.43 21.63a11.25 11.25 0 0 1-.93 4.73 7.18 7.18 0 0 1-2.7 3.14 7.3 7.3 0 0 1-4 1.1 7.38 7.38 0 0 1-4-1.09 7.2 7.2 0 0 1-2.72-3.11 10.83 10.83 0 0 1-1-4.67v-.9a11.25 11.25 0 0 1 .95-4.75 7.3 7.3 0 0 1 2.71-3.15 7.43 7.43 0 0 1 4-1.1 7.34 7.34 0 0 1 4 1.1 7.11 7.11 0 0 1 2.71 3.15 11.05 11.05 0 0 1 1 4.74zm-3.75-.83a7.72 7.72 0 0 0-1-4.36 3.54 3.54 0 0 0-5.77 0 7.65 7.65 0 0 0-1 4.32v.89a7.91 7.91 0 0 0 1 4.34 3.52 3.52 0 0 0 5.79.07 7.89 7.89 0 0 0 1-4.35zM286.84 27.33h7.88v3h-11.59V12.08h3.71zM129.58 48.99a11.28 11.28 0 0 1-.94 4.73 7.23 7.23 0 0 1-2.7 3.14 7.85 7.85 0 0 1-8 0 7.26 7.26 0 0 1-2.72-3.11 10.86 10.86 0 0 1-1-4.67v-.91a11.2 11.2 0 0 1 1-4.74 7.24 7.24 0 0 1 2.71-3.15 7.34 7.34 0 0 1 4-1.1 7.25 7.25 0 0 1 4 1.1 7.11 7.11 0 0 1 2.71 3.15 11 11 0 0 1 1 4.73zm-3.76-.83a7.75 7.75 0 0 0-1-4.37 3.54 3.54 0 0 0-5.77 0 7.65 7.65 0 0 0-1 4.32v.88a7.94 7.94 0 0 0 1 4.34 3.28 3.28 0 0 0 2.92 1.54 3.25 3.25 0 0 0 2.87-1.48 7.83 7.83 0 0 0 1-4.34zM143.11 50.19H136v7.47h-3.71V39.39H144v3.05h-8v4.72h7.13zM166.09 39.39v12a6.21 6.21 0 0 1-1.86 4.75 8.22 8.22 0 0 1-10 0 6.13 6.13 0 0 1-1.9-4.66V39.39H156v12.06a3.55 3.55 0 0 0 .84 2.62 3.29 3.29 0 0 0 2.35.82c2.09 0 3.15-1.12 3.18-3.34V39.39zM174.77 50.33l-1.93 2.11v5.22h-3.71V39.39h3.71v8.28l1.63-2.27 4.59-6h4.56l-6.39 8.12 6.58 10.15h-4.42zM191.87 50.99h-3v6.69h-3.7V39.39h6.69a7.52 7.52 0 0 1 4.92 1.44 5 5 0 0 1 1.73 4.08 5.69 5.69 0 0 1-.8 3.12 5.52 5.52 0 0 1-2.42 2l3.9 7.46v.18h-4zm-3-3h3a3.07 3.07 0 0 0 2.16-.71 2.64 2.64 0 0 0 .77-2 2.75 2.75 0 0 0-.73-2 2.94 2.94 0 0 0-2.21-.74h-3zM211.55 53.89H205l-1.23 3.77h-3.95l6.7-18.27H210l6.74 18.27h-3.94zm-5.51-3h4.51l-2.27-6.9zM222.37 57.66h-3.71V39.39h3.71zM240.46 57.66h-3.71l-7.22-12v12h-3.71V39.39h3.71l7.24 12v-12h3.69zM254.54 49.74h-7.13v4.89h8.36v3H243.7V39.39h12.05v3.05h-8.34v4.35h7.13z" fill="#fff"/><path d="M24 22.39l-6 10.39H6L0 22.39l6-10.4h12z" style="isolation:isolate" fill="#fff" opacity=".25"/><path d="M44 34.39l-6 10.39H26l-6-10.39 6-10.4h12z" fill="#fff"/><path d="M24 46.39l-6 10.39H6L0 46.39l6-10.4h12zM44 58.39l-6 10.39H26l-6-10.39 6-10.4h12z" style="isolation:isolate" fill="#fff" opacity=".25"/><path d="M64 22.39l-6 10.39H46l-6-10.39 6-10.4h12z" fill="#fff"/><path d="M44 10.39l-6 10.39H26l-6-10.39 6-10.4h12z" style="isolation:isolate" fill="#fff" opacity=".25"/><path d="M64 46.39l-6 10.39H46l-6-10.39 6-10.4h12zM84 34.39l-6 10.39H66l-6-10.39 6-10.4h12z" fill="#fff"/><path d="M84 58.39l-6 10.39H66l-6-10.39 6-10.4h12zM104 22.39l-6 10.39H86l-6-10.39 6-10.4h12zM84 10.39l-6 10.39H66l-6-10.39 6-10.4h12zM104 46.39l-6 10.39H86l-6-10.39 6-10.4h12z" style="isolation:isolate" fill="#fff" opacity=".25"/><path d="M73.57 35.89s.42-5.45-2.91-9.5c0 0 1.27 6.33.42 9.65A10.85 10.85 0 0 0 64 31.41a11.16 11.16 0 0 1 5.7 9 .75.75 0 0 0 .8.65H74a.75.75 0 0 0 .78-.6c.35-2.16 1.76-9.53 5.23-12.62-.01-.02-5.38 2.7-6.44 8.05zM30.31 32.42a1.19 1.19 0 0 1-1.41-1 1.32 1.32 0 0 1 .91-1.56 1.2 1.2 0 0 1 1.42 1 1.31 1.31 0 0 1-.92 1.56zm.94 2.78a.74.74 0 0 1-.49-.87.66.66 0 0 1 .79-.53l1.3.34a.73.73 0 0 1 .49.87.68.68 0 0 1-.5.53.71.71 0 0 1-.29 0zm3.23 3l-1.3.38a.65.65 0 0 1-.76-.52.73.73 0 0 1 .46-.88l1.29-.38a.65.65 0 0 1 .8.51.73.73 0 0 1-.49.94zm3.41-.91l-1.23-.3a3.18 3.18 0 0 0-.34-1l.83-.58a.75.75 0 0 0 .2-1 .61.61 0 0 0-.89-.22l-.83.58-.93-1.62.8-.55a.77.77 0 0 0 .2-1 .62.62 0 0 0-.9-.22l-.8.61-.93-1.62.83-.57a.77.77 0 0 0 .2-1 .62.62 0 0 0-.9-.22l-.83.58a2.73 2.73 0 0 0-.92-.93l.22-1.09a.71.71 0 0 0-.49-.85.65.65 0 0 0-.78.54l-.21 1a2.46 2.46 0 0 0-1.32.36l-.52-.9a.62.62 0 0 0-.9-.22.77.77 0 0 0-.2 1l.52.9a2.92 2.92 0 0 0-.93 1.36l-1.09-.27a.64.64 0 0 0-.77.54.72.72 0 0 0 .49.86l1.23.3a3.14 3.14 0 0 0 .35 1.1l-.78.54a.77.77 0 0 0-.2 1 .63.63 0 0 0 .69.31.64.64 0 0 0 .24-.12l.77-.54.93 1.61-.8.56a.77.77 0 0 0-.2 1 .63.63 0 0 0 .69.31.64.64 0 0 0 .21-.09l.8-.56.93 1.61-.77.54a.75.75 0 0 0-.2 1 .62.62 0 0 0 .68.32.58.58 0 0 0 .21-.1l.75-.56a3 3 0 0 0 .91.9l-.22 1.09a.71.71 0 0 0 .49.85.45.45 0 0 0 .28 0 .68.68 0 0 0 .54-.54l.21-1a2.46 2.46 0 0 0 1.32-.36l.56 1a.64.64 0 0 0 .69.32.67.67 0 0 0 .21-.1.76.76 0 0 0 .2-1l-.56-1a2.92 2.92 0 0 0 .93-1.36l1.09.27a.5.5 0 0 0 .27 0 .65.65 0 0 0 .5-.54.72.72 0 0 0-.53-.88zM47 46.99l-2.86 2.49a.44.44 0 0 0 0 .7.61.61 0 0 0 .8 0l2.69-2.34h.91v1.64l-2.03 1.51a.44.44 0 0 0-.11.65l1.71 2.5a.66.66 0 0 0 .8.15.46.46 0 0 0 .18-.7l-1.43-2.15 1.08-.75a3.35 3.35 0 0 0 2.75 2.15v-7.46a.5.5 0 0 1 .57-.5.51.51 0 0 1 .57.5v7.49a3.42 3.42 0 0 0 2.74-2.15l1.09.75L55 53.62a.5.5 0 0 0 .17.7.67.67 0 0 0 .8-.15l1.71-2.5a.43.43 0 0 0-.08-.68l-2.17-1.5v-1.61h.91L59 50.22a.61.61 0 0 0 .8 0 .44.44 0 0 0 0-.7L57 46.99a.55.55 0 0 0-.4-.15h-1.17a2.31 2.31 0 0 0-.12-1h1a1 1 0 0 0 .91-.55l1.6-3.74a.51.51 0 0 0-.34-.65.63.63 0 0 0-.75.3l-1.54 3.64H55a4.13 4.13 0 0 0-.4-2.1l1.2-1a.37.37 0 0 0 .2-.35v-1.5a.44.44 0 0 0-.17-.35l-1.14-1a.61.61 0 0 0-.8 0 .44.44 0 0 0 0 .7l1 .85v1.1l-.8.7a2.76 2.76 0 0 0-2.06-1 2.63 2.63 0 0 0-2 1l-.8-.7v-1.1l1-.85a.44.44 0 0 0 0-.7.61.61 0 0 0-.8 0l-1.14 1a.41.41 0 0 0-.17.35v1.5a.41.41 0 0 0 .17.35l1.2 1a4.13 4.13 0 0 0-.4 2.1h-1.2l-1.6-3.64a.58.58 0 0 0-.75-.3.49.49 0 0 0-.34.65l1.66 3.74a1 1 0 0 0 .91.55h.92a2.31 2.31 0 0 0-.12 1h-1.14a.48.48 0 0 0-.43.15zM48.33 30.07l.86-.86h2.26a1.81 1.81 0 0 1-1.53-1.67 1.56 1.56 0 0 1 .45-1.08h-2.89l.42.5h-1.14v-1.67h1.63c-.76-1.43-2.24-2-4.25-1.88l-1.9-1.42v-.16l1.77-1 .18-.41 2-.69v-.34a.75.75 0 0 1 .73-.76.69.69 0 0 1 .62.38.72.72 0 0 1 .63-.38.75.75 0 0 1 .73.76v.36l2.2 1.24H53c2.85 0 3.75.82 3.73 3.29v4.94c.94 0 .94-.83.94-2.06v-5.32c0-1.64 0-2.43-1.85-2.43-1 0-1 0-1-.45s0-.41 1-.41c2.78 0 2.78.82 2.78 3.29v5.35c0 2.06-.11 2.89-1.85 2.88z" fill="#27b45d"/></svg>