<svg xmlns="http://www.w3.org/2000/svg" viewBox="0 0 294.72 68.78"><path d="M118.49 23.92v6.43h-3.71V12.08h7a7.87 7.87 0 0 1 3.56.76 5.5 5.5 0 0 1 2.41 2.16 6 6 0 0 1 .82 3.15 5.28 5.28 0 0 1-1.81 4.24 7.49 7.49 0 0 1-5 1.55zm0-3.05h3.32a3.2 3.2 0 0 0 2.24-.71 2.53 2.53 0 0 0 .78-2 3 3 0 0 0-.78-2.17 2.88 2.88 0 0 0-2.15-.86h-3.41zM142 22.44h-7.13v4.89h8.37v3h-12.11V12.08h12.05v3.05h-8.34v4.36H142zM154.72 25.56a1.94 1.94 0 0 0-.74-1.63 9.45 9.45 0 0 0-2.67-1.21 18.48 18.48 0 0 1-3.06-1.25c-2-1.12-3.07-2.63-3.07-4.53a4.49 4.49 0 0 1 .82-2.64 5.49 5.49 0 0 1 2.36-1.82 8.93 8.93 0 0 1 3.46-.65 7.87 7.87 0 0 1 3.44.72 5.39 5.39 0 0 1 2.34 2 5.27 5.27 0 0 1 .84 2.94h-3.71a2.47 2.47 0 0 0-.78-2 3.2 3.2 0 0 0-2.19-.7 3.37 3.37 0 0 0-2.11.59 1.86 1.86 0 0 0-.76 1.53 1.8 1.8 0 0 0 .88 1.5 10.61 10.61 0 0 0 2.61 1.13A11.15 11.15 0 0 1 157 22a4.8 4.8 0 0 1 1.45 3.57 4.42 4.42 0 0 1-1.77 3.72 7.65 7.65 0 0 1-4.76 1.35 9.12 9.12 0 0 1-3.78-.77 6.11 6.11 0 0 1-2.61-2.12 5.45 5.45 0 0 1-.89-3.11h3.72q0 3 3.56 3a3.49 3.49 0 0 0 2.07-.54 1.82 1.82 0 0 0 .73-1.54zM174.52 15.13H169v15.22h-3.71V15.13h-5.44v-3.05h14.67zM196.35 24.27a6.51 6.51 0 0 1-2.15 4.64 7.46 7.46 0 0 1-5.1 1.7 6.75 6.75 0 0 1-5.45-2.36 9.84 9.84 0 0 1-2-6.5v-1.12a11 11 0 0 1 .91-4.64 6.9 6.9 0 0 1 2.61-3.08 8.06 8.06 0 0 1 9 .62 6.94 6.94 0 0 1 2.2 4.75h-3.71a3.8 3.8 0 0 0-1-2.56 3.57 3.57 0 0 0-2.54-.8 3.15 3.15 0 0 0-2.78 1.35 7.62 7.62 0 0 0-.94 4.18v1.38a8.17 8.17 0 0 0 .88 4.33 3.07 3.07 0 0 0 2.79 1.37 3.6 3.6 0 0 0 2.56-.79 3.61 3.61 0 0 0 1-2.47zM213.58 21.63a11.24 11.24 0 0 1-.94 4.73 7.12 7.12 0 0 1-2.7 3.14 7.3 7.3 0 0 1-4 1.11 7.38 7.38 0 0 1-4-1.1 7.14 7.14 0 0 1-2.72-3.11 10.8 10.8 0 0 1-1-4.67v-.9a11.17 11.17 0 0 1 .95-4.74 7.19 7.19 0 0 1 2.71-3.15 7.35 7.35 0 0 1 4-1.11 7.26 7.26 0 0 1 4 1.11 7 7 0 0 1 2.71 3.15 10.86 10.86 0 0 1 1 4.73zm-3.76-.83a7.72 7.72 0 0 0-1-4.36 3.53 3.53 0 0 0-5.77 0 7.59 7.59 0 0 0-1 4.31v.89A8 8 0 0 0 203 26a3.31 3.31 0 0 0 2.92 1.54A3.25 3.25 0 0 0 208.8 26a7.88 7.88 0 0 0 1-4.34zM230.92 30.35h-3.71l-7.23-12v12h-3.71V12.08H220l7.24 12v-12h3.7zM247.34 15.13h-5.52v15.22h-3.71V15.13h-5.44v-3.05h14.67zM256.13 23.67h-2.95v6.68h-3.71V12.08h6.69a7.42 7.42 0 0 1 4.92 1.45 5 5 0 0 1 1.73 4.07 5.75 5.75 0 0 1-.8 3.13 5.4 5.4 0 0 1-2.41 2l3.89 7.47v.17h-4zm-2.95-3.05h3a3 3 0 0 0 2.16-.72 2.58 2.58 0 0 0 .77-2 2.77 2.77 0 0 0-.73-2 3 3 0 0 0-2.21-.74h-3zM280.43 21.63a11.25 11.25 0 0 1-.93 4.73 7.12 7.12 0 0 1-2.7 3.14 7.3 7.3 0 0 1-4 1.11 7.38 7.38 0 0 1-4-1.1 7.14 7.14 0 0 1-2.72-3.11 10.8 10.8 0 0 1-1-4.67v-.9a11.17 11.17 0 0 1 .95-4.74 7.19 7.19 0 0 1 2.71-3.15 7.35 7.35 0 0 1 4-1.11 7.26 7.26 0 0 1 4 1.11 7 7 0 0 1 2.71 3.15 11 11 0 0 1 1 4.73zm-3.75-.83a7.72 7.72 0 0 0-1-4.36 3.53 3.53 0 0 0-5.77 0 7.59 7.59 0 0 0-1 4.31v.89a8 8 0 0 0 1 4.35 3.31 3.31 0 0 0 2.92 1.54 3.25 3.25 0 0 0 2.83-1.53 7.88 7.88 0 0 0 1-4.34zM286.84 27.33h7.88v3h-11.59V12.08h3.71zM129.58 48.94a11.24 11.24 0 0 1-.94 4.73 7.18 7.18 0 0 1-2.7 3.14 7.85 7.85 0 0 1-8 0 7.2 7.2 0 0 1-2.72-3.11 10.83 10.83 0 0 1-1-4.67v-.9a11.25 11.25 0 0 1 1-4.75 7.24 7.24 0 0 1 2.71-3.15 7.43 7.43 0 0 1 4-1.1 7.34 7.34 0 0 1 4 1.1 7.11 7.11 0 0 1 2.71 3.15 11 11 0 0 1 1 4.73zm-3.76-.83a7.78 7.78 0 0 0-1-4.37 3.54 3.54 0 0 0-5.77 0 7.65 7.65 0 0 0-1 4.32v.89a7.91 7.91 0 0 0 1 4.34 3.29 3.29 0 0 0 2.92 1.55 3.26 3.26 0 0 0 2.87-1.49 7.83 7.83 0 0 0 1-4.34zM143.11 50.19H136v7.47h-3.71V39.39H144v3h-8v4.72h7.13zM166.09 39.39v12a6.2 6.2 0 0 1-1.86 4.75 8.22 8.22 0 0 1-10 0 6.11 6.11 0 0 1-1.9-4.66V39.39H156v12.06a3.54 3.54 0 0 0 .84 2.62 3.25 3.25 0 0 0 2.35.82q3.13 0 3.18-3.34V39.39zM174.77 50.33l-1.93 2.11v5.22h-3.71V39.39h3.71v8.28l1.63-2.27 4.59-6h4.56l-6.39 8.12 6.58 10.15h-4.42zM191.87 51h-3v6.69h-3.7v-18.3h6.69a7.52 7.52 0 0 1 4.92 1.44 5 5 0 0 1 1.73 4.08 5.75 5.75 0 0 1-.8 3.13 5.5 5.5 0 0 1-2.42 2l3.9 7.47v.17h-4zm-3-3h3a3.07 3.07 0 0 0 2.16-.71 2.64 2.64 0 0 0 .77-2 2.75 2.75 0 0 0-.73-2 3 3 0 0 0-2.21-.74h-3zM211.55 53.9H205l-1.23 3.76h-3.95l6.7-18.27H210l6.74 18.27h-3.94zm-5.51-3h4.51l-2.27-6.9zM222.37 57.66h-3.71V39.39h3.71zM240.46 57.66h-3.71l-7.22-12v12h-3.71V39.39h3.71l7.24 12v-12h3.69zM254.54 49.74h-7.13v4.9h8.36v3H243.7V39.39h12.05v3h-8.34v4.35h7.13z" fill="#232a30"/><path d="M24 22.39l-6 10.39H6L0 22.39 6 12h12z" style="isolation:isolate" fill="#27b45d" opacity=".25"/><path d="M44 34.39l-6 10.39H26l-6-10.39L26 24h12z" fill="#27b45d"/><path d="M24 46.39l-6 10.39H6L0 46.39 6 36h12zM44 58.39l-6 10.39H26l-6-10.39L26 48h12z" style="isolation:isolate" fill="#27b45d" opacity=".25"/><path d="M64 22.39l-6 10.39H46l-6-10.39L46 12h12z" fill="#27b45d"/><path d="M44 10.39l-6 10.39H26l-6-10.39L26 0h12z" style="isolation:isolate" fill="#27b45d" opacity=".25"/><path d="M64 46.39l-6 10.39H46l-6-10.39L46 36h12zM84 34.39l-6 10.39H66l-6-10.39L66 24h12z" fill="#27b45d"/><path d="M84 58.39l-6 10.39H66l-6-10.39L66 48h12zM104 22.39l-6 10.39H86l-6-10.39L86 12h12zM84 10.39l-6 10.39H66l-6-10.39L66 0h12zM104 46.39l-6 10.39H86l-6-10.39L86 36h12z" style="isolation:isolate" fill="#27b45d" opacity=".25"/><path d="M73.57 35.89s.42-5.45-2.91-9.5c0 0 1.27 6.33.42 9.65A10.85 10.85 0 0 0 64 31.41a11.16 11.16 0 0 1 5.7 9 .75.75 0 0 0 .8.64H74a.75.75 0 0 0 .78-.6c.35-2.16 1.76-9.52 5.23-12.62-.01-.01-5.38 2.71-6.44 8.06zM30.31 32.42a1.19 1.19 0 0 1-1.41-1 1.3 1.3 0 0 1 .91-1.55 1.19 1.19 0 0 1 1.42 1 1.31 1.31 0 0 1-.92 1.55zm.94 2.78a.73.73 0 0 1-.49-.86.66.66 0 0 1 .79-.54l1.3.35a.72.72 0 0 1 .49.86.67.67 0 0 1-.5.53.71.71 0 0 1-.29 0zm3.23 3l-1.3.38a.65.65 0 0 1-.76-.52.71.71 0 0 1 .46-.87l1.29-.38a.64.64 0 0 1 .8.5.72.72 0 0 1-.49.94zm3.41-.9l-1.23-.3a3.18 3.18 0 0 0-.34-1l.83-.58a.75.75 0 0 0 .2-1 .61.61 0 0 0-.89-.22l-.83.58-.93-1.61.8-.56a.77.77 0 0 0 .2-1 .62.62 0 0 0-.9-.22l-.8.56-.93-1.61.83-.58a.77.77 0 0 0 .2-1 .62.62 0 0 0-.9-.22l-.83.58a2.7 2.7 0 0 0-.92-.92l.22-1.1a.72.72 0 0 0-.49-.85.66.66 0 0 0-.78.54l-.21 1a2.45 2.45 0 0 0-1.32.35l-.52-.9a.62.62 0 0 0-.9-.22.77.77 0 0 0-.2 1l.52.9a2.92 2.92 0 0 0-.93 1.36L25.75 30a.64.64 0 0 0-.77.54.72.72 0 0 0 .49.86l1.23.3a3.14 3.14 0 0 0 .35 1.1l-.78.54a.77.77 0 0 0-.2 1 .64.64 0 0 0 .69.32.67.67 0 0 0 .21-.1l.77-.54.93 1.61-.8.56a.77.77 0 0 0-.2 1 .64.64 0 0 0 .69.32.67.67 0 0 0 .21-.1l.8-.56.93 1.61-.77.54a.75.75 0 0 0-.2 1 .62.62 0 0 0 .68.32.58.58 0 0 0 .21-.1l.78-.54a2.89 2.89 0 0 0 .91.9l-.22 1.09a.72.72 0 0 0 .49.86.66.66 0 0 0 .28 0A.71.71 0 0 0 33 42l.21-1a2.46 2.46 0 0 0 1.32-.36l.56 1a.64.64 0 0 0 .69.32.67.67 0 0 0 .21-.1.75.75 0 0 0 .2-1l-.56-1a3 3 0 0 0 .93-1.36l1.09.26a.5.5 0 0 0 .27 0 .68.68 0 0 0 .5-.55.71.71 0 0 0-.53-.86zM47 47l-2.86 2.5a.44.44 0 0 0 0 .7.61.61 0 0 0 .8 0l2.69-2.35h.91v1.65L46.51 51a.44.44 0 0 0-.11.65l1.71 2.5a.66.66 0 0 0 .8.15.46.46 0 0 0 .18-.7l-1.43-2.15 1.08-.74a3.36 3.36 0 0 0 2.75 2.14v-7.47a.5.5 0 0 1 .57-.5.51.51 0 0 1 .57.5v7.49a3.43 3.43 0 0 0 2.74-2.14l1.09.74L55 53.62a.5.5 0 0 0 .17.7.67.67 0 0 0 .8-.15l1.71-2.5a.43.43 0 0 0-.08-.67l-2.17-1.49v-1.63h.91L59 50.23a.61.61 0 0 0 .8 0 .44.44 0 0 0 0-.7L57 47a.55.55 0 0 0-.4-.15h-1.17a2.31 2.31 0 0 0-.12-1h1a1 1 0 0 0 .91-.55l1.6-3.74a.51.51 0 0 0-.34-.65.63.63 0 0 0-.75.3l-1.54 3.64H55a4.09 4.09 0 0 0-.4-2.09l1.2-1a.37.37 0 0 0 .23-.35v-1.5a.44.44 0 0 0-.17-.35l-1.14-1a.61.61 0 0 0-.8 0 .44.44 0 0 0 0 .7l1 .85v1.1l-.8.7a2.76 2.76 0 0 0-2.06-1 2.63 2.63 0 0 0-2 1l-.8-.7v-1.1l1-.85a.44.44 0 0 0 0-.7.61.61 0 0 0-.8 0l-1.14 1a.41.41 0 0 0-.17.35v1.5a.41.41 0 0 0 .17.35l1.2 1a4.09 4.09 0 0 0-.4 2.09h-1.23l-1.6-3.64a.58.58 0 0 0-.75-.3.49.49 0 0 0-.34.65l1.66 3.74a1 1 0 0 0 .91.55h.92a2.31 2.31 0 0 0-.12 1h-1.14A.48.48 0 0 0 47 47zM48.33 30.07l.86-.86h2.26a1.81 1.81 0 0 1-1.53-1.67 1.57 1.57 0 0 1 .45-1.08v-.05h-2.89l.42.5h-1.14v-1.66h1.63c-.76-1.43-2.24-2-4.25-1.89L42.24 22v-.17l1.77-1 .18-.41 2-.69v-.34a.75.75 0 0 1 .73-.76.71.71 0 0 1 .62.38.72.72 0 0 1 1.36.38v.36L51.1 21H53c2.85 0 3.75.82 3.73 3.29v4.94c.94 0 .94-.82.94-2.06v-5.33c0-1.64 0-2.43-1.85-2.43-1 0-1 0-1-.45s0-.41 1-.41c2.78 0 2.78.83 2.78 3.29v5.35c0 2.06-.11 2.89-1.85 2.88z" fill="#fff"/></svg>